# xmcd CD database file
#
# Track frame offsets:
#	182
#	11445
#	23907
#	34995
#	47382
#	58932
#	70145
#	83995
#	93370
#	105820
#	116757
#	129445
#	141232
#	151845
#
# Disc length: 2172 seconds
#
# Revision: 2
# Processed by: cddbd v1.4PL0 Copyright (c) Steve Scherf et al.
# Submitted via: CDex 1.50
#
DISCID=ae087a0e
DTITLE=Bo Diddley - The Great Bo Diddley
DYEAR=1993
DGENRE=Rock and Roll
TTITLE0=Bo Diddley
TTITLE1=I'm A Man
TTITLE2=Diddley Daddy
TTITLE3=Pretty Thing
TTITLE4=I'm Looking For A Woman
TTITLE5=Who Do You Love
TTITLE6=Before You Accuse Me
TTITLE7=Crackin' Up
TTITLE8=Don't Let it Go
TTITLE9=I'm Sorry
TTITLE10=Road Runner
TTITLE11=Spend My Life With You
TTITLE12=Deed And Deed I Do
TTITLE13=Back Home
EXTD=YEAR: 1993
EXTT0=
EXTT1=
EXTT2=
EXTT3=
EXTT4=
EXTT5=
EXTT6=
EXTT7=
EXTT8=
EXTT9=
EXTT10=
EXTT11=
EXTT12=
EXTT13=
PLAYORDER=
